<?xml version="1.0" encoding="UTF-8" standalone="yes"?>
<svg width="100%" height="100%" viewBox="0 0 1000 1000" version="1.2" xml:space="preserve" fill-rule="evenodd" stroke-linejoin="round" stroke-miterlimit="2" baseProfile="tiny-ps" xmlns="http://www.w3.org/2000/svg">
  <title>bimi-svg-tiny-12-ps</title>
  <rect id="Artboard1" x="0" y="0" width="1000" height="1000" fill="none"/>
  <g id="Artboard11">
    <g>
      <g>
        <path d="M341.363,77.395C294.954,97.74 252.785,125.488 215.664,160.05C204.833,170.13 204.564,187.351 215.146,197.692C224.823,207.171 240.153,207.444 250.045,198.216C323.963,129.288 419.1,91.603 520.484,91.603C573.732,91.603 625.103,101.911 673.508,122.288C685.936,127.519 700.251,121.961 706.141,109.719L706.152,109.708C712.603,96.298 706.519,80.213 692.915,74.491C638.34,51.547 580.464,39.939 520.484,39.939C458.271,39.939 398.01,52.53 341.363,77.395M758.462,140.339C750.9,151.609 753.23,166.93 763.899,175.219C813.587,213.81 853.394,263.279 880.558,320.173C886.405,332.436 900.742,337.842 913.169,332.666L913.18,332.666C926.816,326.976 932.792,310.825 926.363,297.394C895.779,233.456 851.043,177.85 795.248,134.443C790.555,130.784 785.032,129.026 779.563,129.026C771.429,129.026 763.413,132.936 758.462,140.339M492.802,174.956C422.714,181.094 356.725,210.425 304.566,259.096C252.807,307.418 218.631,370.974 206.646,440.372C204.067,455.278 214.704,469.212 229.602,470.511L229.613,470.522C242.785,471.669 254.641,462.463 256.928,449.293C277.791,329.674 377.556,237.169 497.236,226.456C510.397,225.277 520.484,214.116 520.484,200.739L520.484,200.706C520.484,186.324 508.941,174.858 495.014,174.858C494.28,174.858 493.547,174.891 492.802,174.956M587.756,208.602L587.756,208.612C584.703,221.695 592.136,234.875 604.758,239.102C662.235,258.376 711.665,296.99 744.815,348.544C752.065,359.824 766.563,363.734 778.29,357.4L778.301,357.4C791.472,350.28 795.863,333.255 787.729,320.577C748.203,259.02 689.183,212.926 620.529,189.972C617.876,189.087 615.2,188.672 612.568,188.672C601.09,188.672 590.55,196.622 587.756,208.602M140.161,251.157C93.957,324.345 69.663,408.539 69.663,496.294C69.663,584.267 94.065,668.625 140.463,741.922C148.381,754.436 165.08,757.603 176.958,748.856L176.969,748.856C187.886,740.808 190.712,725.552 183.42,714.031C142.318,649.056 120.7,574.286 120.7,496.294C120.7,418.498 142.221,343.87 183.15,278.993C190.421,267.472 187.584,252.206 176.656,244.179L176.645,244.169C172.103,240.827 166.86,239.233 161.682,239.233C153.289,239.233 145.048,243.415 140.161,251.157M417.428,496.283C417.428,553.81 463.664,600.625 520.484,600.625C577.314,600.625 623.55,553.81 623.55,496.283C623.55,438.766 577.314,391.962 520.484,391.962C463.664,391.962 417.428,438.766 417.428,496.283M468.465,496.283C468.465,467.257 491.799,443.626 520.484,443.626C549.179,443.626 572.524,467.257 572.524,496.283C572.524,525.331 549.179,548.951 520.484,548.951C491.799,548.951 468.465,525.331 468.465,496.283M229.591,521.727L229.559,521.727C214.661,523.016 204.013,536.95 206.581,551.856C218.491,621.319 252.634,684.973 304.448,733.371C356.607,782.108 422.66,811.483 492.802,817.631C507.689,818.942 520.484,807.028 520.484,791.892L520.484,791.849C520.484,778.482 510.397,767.322 497.236,766.143C377.405,755.419 277.618,662.772 256.884,542.989C254.727,530.55 244.036,521.64 231.77,521.64C231.048,521.64 230.325,521.672 229.591,521.727M744.815,644.044C711.665,695.598 662.235,734.212 604.758,753.475C592.136,757.712 584.703,770.882 587.756,783.986C591.187,798.707 606.333,807.355 620.529,802.616C689.183,779.662 748.203,733.568 787.729,672C795.863,659.332 791.472,642.308 778.301,635.188L778.29,635.188C774.492,633.135 770.404,632.163 766.359,632.163C757.933,632.152 749.724,636.411 744.815,644.044M880.558,672.404C853.394,729.309 813.598,778.777 763.899,817.369C753.241,825.647 750.91,840.979 758.462,852.248C766.736,864.61 783.554,867.242 795.248,858.145C851.053,814.726 895.79,759.143 926.363,695.194C932.792,681.751 926.816,665.611 913.18,659.922L913.169,659.922C909.987,658.59 906.686,657.956 903.428,657.956C893.956,657.956 884.905,663.296 880.558,672.404M215.502,795.256L215.502,795.267C204.93,805.63 205.222,822.851 216.063,832.919C253.163,867.362 295.289,895.023 341.622,915.312C398.193,940.09 458.368,952.648 520.484,952.648C580.658,952.648 638.696,940.964 693.412,917.889C707.004,912.145 713.078,896.06 706.616,882.661L706.616,882.65C700.693,870.408 686.389,864.861 673.961,870.114C625.427,890.611 573.905,900.985 520.484,900.985C419.294,900.985 324.276,863.42 250.412,794.699C245.568,790.2 239.441,787.972 233.302,787.961C226.873,787.961 220.443,790.418 215.502,795.256" fill="#2559c1" fill-rule="nonzero"/>
      </g>
    </g>
  </g>
</svg>