<?xml version="1.0" encoding="UTF-8" standalone="yes"?>
<svg width="100%" height="100%" viewBox="0 0 1000 1000" version="1.2" xml:space="preserve" fill-rule="evenodd" stroke-linejoin="round" stroke-miterlimit="2" baseProfile="tiny-ps" xmlns="http://www.w3.org/2000/svg">
  <title>bimi-svg-tiny-12-ps</title>
  <rect id="Artboard1" x="0" y="0" width="1000" height="1000" fill="none"/>
  <g id="Artboard11">
    <g>
      <g>
        <path d="M419.877,198.968C395.749,209.545 373.824,223.972 354.525,241.941C348.893,247.182 348.753,256.135 354.255,261.512C359.286,266.44 367.256,266.582 372.399,261.784C410.83,225.948 460.294,206.354 513.004,206.354C540.689,206.354 567.397,211.714 592.564,222.308C599.025,225.028 606.468,222.138 609.53,215.773L609.536,215.768C612.89,208.796 609.726,200.433 602.654,197.458C574.279,185.529 544.189,179.494 513.004,179.494C480.659,179.494 449.329,186.04 419.877,198.968M636.732,231.693C632.801,237.553 634.012,245.518 639.559,249.827C665.393,269.892 686.089,295.611 700.212,325.191C703.252,331.567 710.706,334.378 717.167,331.686L717.172,331.686C724.262,328.728 727.369,320.331 724.026,313.348C708.126,280.106 684.866,251.196 655.858,228.627C653.418,226.725 650.547,225.811 647.703,225.811C643.474,225.811 639.307,227.844 636.732,231.693M498.612,249.691C462.172,252.882 427.864,268.132 400.746,293.437C373.835,318.56 356.067,351.603 349.836,387.684C348.495,395.434 354.025,402.678 361.771,403.354L361.777,403.36C368.625,403.956 374.789,399.17 375.978,392.323C386.825,330.131 438.694,282.036 500.917,276.466C507.76,275.853 513.004,270.051 513.004,263.096L513.004,263.079C513.004,255.601 507.003,249.64 499.762,249.64C499.381,249.64 498.999,249.657 498.612,249.691M547.98,267.184L547.98,267.189C546.393,273.991 550.257,280.844 556.819,283.041C586.703,293.062 612.402,313.138 629.637,339.942C633.406,345.806 640.944,347.839 647.041,344.546L647.047,344.546C653.895,340.844 656.178,331.993 651.949,325.401C631.398,293.397 600.713,269.432 565.019,257.498C563.64,257.038 562.249,256.822 560.88,256.822C554.912,256.822 549.433,260.955 547.98,267.184M315.269,289.309C291.247,327.36 278.616,371.134 278.616,416.759C278.616,462.497 291.303,506.356 315.426,544.464C319.543,550.97 328.225,552.617 334.4,548.069L334.406,548.069C340.082,543.885 341.552,535.953 337.76,529.964C316.391,496.182 305.151,457.308 305.151,416.759C305.151,376.312 316.34,337.512 337.62,303.781C341.4,297.791 339.925,289.854 334.243,285.681L334.238,285.675C331.877,283.938 329.151,283.109 326.459,283.109C322.095,283.109 317.81,285.284 315.269,289.309M459.424,416.753C459.424,446.662 483.463,471.002 513.004,471.002C542.551,471.002 566.59,446.662 566.59,416.753C566.59,386.849 542.551,362.515 513.004,362.515C483.463,362.515 459.424,386.849 459.424,416.753M485.959,416.753C485.959,401.662 498.091,389.376 513.004,389.376C527.923,389.376 540.061,401.662 540.061,416.753C540.061,431.855 527.923,444.136 513.004,444.136C498.091,444.136 485.959,431.855 485.959,416.753M361.765,429.982L361.749,429.982C354.003,430.652 348.467,437.896 349.802,445.646C355.994,481.761 373.746,514.856 400.684,540.018C427.802,565.357 462.144,580.63 498.612,583.826C506.352,584.508 513.004,578.314 513.004,570.444L513.004,570.422C513.004,563.472 507.76,557.67 500.917,557.057C438.616,551.481 386.735,503.313 375.955,441.036C374.834,434.569 369.275,429.936 362.898,429.936C362.523,429.936 362.147,429.953 361.765,429.982M629.637,493.576C612.402,520.38 586.703,540.456 556.819,550.471C550.257,552.674 546.393,559.521 547.98,566.334C549.764,573.987 557.638,578.484 565.019,576.02C600.713,564.086 631.398,540.121 651.949,508.111C656.178,501.525 653.895,492.673 647.047,488.972L647.041,488.972C645.067,487.904 642.941,487.399 640.838,487.399C636.457,487.393 632.189,489.607 629.637,493.576M700.212,508.321C686.089,537.906 665.398,563.626 639.559,583.69C634.018,587.994 632.806,595.965 636.732,601.824C641.034,608.251 649.778,609.62 655.858,604.89C684.872,582.316 708.131,553.417 724.026,520.17C727.369,513.181 724.262,504.789 717.172,501.831L717.167,501.831C715.512,501.139 713.796,500.809 712.102,500.809C707.178,500.809 702.472,503.586 700.212,508.321M354.44,572.193L354.44,572.199C348.944,577.587 349.095,586.54 354.732,591.775C374.02,609.682 395.922,624.063 420.012,634.612C449.424,647.495 480.709,654.024 513.004,654.024C544.29,654.024 574.464,647.949 602.912,635.952C609.979,632.966 613.136,624.603 609.777,617.636L609.777,617.631C606.698,611.266 599.261,608.382 592.799,611.113C567.566,621.77 540.779,627.163 513.004,627.163C460.394,627.163 410.993,607.632 372.59,571.904C370.072,569.564 366.886,568.406 363.695,568.401C360.352,568.401 357.009,569.678 354.44,572.193" fill="#2559c1" fill-rule="nonzero"/>
      </g>
    </g>
    <path d="M235.709,806.619C231.283,809.63 226.272,811.194 220.3,811.194C203.814,811.194 192.106,799.366 192.106,782.678C192.106,766.226 203.814,754.374 220.3,754.374C226.272,754.374 231.283,755.962 235.709,759.091C236.786,759.826 238.214,760.3 239.643,760.3C243.6,760.3 246.809,757.053 246.809,753.047C246.809,750.51 245.497,748.329 243.6,747.002C236.903,742.545 228.777,739.867 220.3,739.867C196.883,739.867 177.774,759.21 177.774,782.678C177.774,806.359 196.883,825.725 220.3,825.725C228.894,825.725 237.02,823.047 243.6,818.448C245.614,817.239 246.809,815.082 246.809,812.546C246.809,808.54 243.6,805.292 239.643,805.292C238.214,805.292 236.786,805.766 235.709,806.619ZM331.018,742.664L312.143,767.815C310.715,769.735 308.326,769.735 306.898,767.815L288.023,742.664C286.712,740.957 284.675,739.867 282.403,739.867C278.352,739.867 275.237,743.138 275.237,747.12C275.237,748.827 275.706,750.392 276.666,751.601L299.708,782.441C301.16,784.361 302.355,788.106 302.355,790.524L302.355,818.59C302.355,822.573 305.563,825.844 309.52,825.844C313.454,825.844 316.686,822.573 316.686,818.59L316.686,790.524C316.686,788.106 317.88,784.361 319.309,782.441L342.352,751.601C343.312,750.392 343.78,748.827 343.78,747.12C343.78,743.138 340.689,739.867 336.614,739.867C334.366,739.867 332.329,740.957 331.018,742.664ZM381.06,825.109L414.009,825.109C427.38,825.109 438.386,813.873 438.386,800.314C438.386,792.231 434.546,784.977 428.457,780.378C426.443,779.169 425.717,776.277 426.795,774.096C427.872,771.441 428.457,768.407 428.457,765.255C428.457,751.838 417.24,740.483 403.986,740.483L381.06,740.483C376.283,740.483 372.209,744.584 372.209,749.42L372.209,816.172C372.209,821.008 376.283,825.109 381.06,825.109ZM386.54,806.122L386.54,794.53C386.54,792.112 388.577,790.05 390.966,790.05L414.009,790.05C420.472,790.05 424.055,793.677 424.055,800.314C424.055,806.856 420.472,810.602 414.009,810.602L390.966,810.602C388.577,810.602 386.54,808.54 386.54,806.122ZM386.54,771.062L386.54,759.471C386.54,757.053 388.577,754.99 390.966,754.99L403.986,754.99C410.309,754.99 414.126,758.854 414.126,765.255C414.126,771.797 410.309,775.542 403.986,775.542L390.966,775.542C388.577,775.542 386.54,773.48 386.54,771.062ZM516.483,810.602L485.549,810.602C483.16,810.602 481.123,808.54 481.123,806.122L481.123,794.53C481.123,792.112 483.16,790.05 485.549,790.05L508.123,790.05C512.057,790.05 515.289,786.779 515.289,782.796C515.289,778.814 512.057,775.542 508.123,775.542L485.549,775.542C483.16,775.542 481.123,773.48 481.123,771.062L481.123,759.471C481.123,757.053 483.16,754.99 485.549,754.99L516.483,754.99C520.417,754.99 523.649,751.719 523.649,747.737C523.649,743.754 520.417,740.483 516.483,740.483L475.76,740.483C470.866,740.483 466.791,744.584 466.791,749.538L466.791,816.03C466.791,821.008 470.866,825.109 475.76,825.109L516.483,825.109C520.417,825.109 523.649,821.838 523.649,817.855C523.649,813.873 520.417,810.602 516.483,810.602ZM566.409,818.59L566.409,807.094C566.409,804.676 568.446,802.613 570.835,802.613L577.392,802.613C579.78,802.613 583.012,804.202 584.557,806.122L597.226,822.928C598.538,824.635 600.551,825.725 602.823,825.725C606.78,825.725 609.989,822.454 609.989,818.448C609.989,816.765 609.52,815.201 608.56,813.992L599.966,802.613C598.538,800.812 599.006,798.038 601.043,796.687C608.794,791.14 613.946,781.824 613.946,771.56C613.946,754.753 599.966,740.602 583.363,740.602L561.023,740.602C556.129,740.602 552.077,744.584 552.077,749.538L552.077,818.59C552.077,822.573 555.309,825.844 559.243,825.844C563.177,825.844 566.409,822.573 566.409,818.59ZM566.409,783.649L566.409,759.589C566.409,757.171 568.446,755.109 570.835,755.109L583.363,755.109C593.034,755.109 599.615,761.77 599.615,771.56C599.615,781.469 593.034,788.106 583.363,788.106L570.835,788.106C568.446,788.106 566.409,786.067 566.409,783.649ZM684.877,811.194C668.392,811.194 656.683,799.366 656.683,782.678C656.683,766.226 668.392,754.374 684.877,754.374C701.246,754.374 712.955,766.226 712.955,782.678C712.955,799.366 701.246,811.194 684.877,811.194ZM684.877,825.725C708.178,825.725 727.286,806.359 727.286,782.678C727.286,759.21 708.178,739.867 684.877,739.867C661.46,739.867 642.351,759.21 642.351,782.678C642.351,806.359 661.46,825.725 684.877,825.725ZM770.023,818.59L770.023,770.09C770.023,767.672 771.217,767.317 772.529,769.261L809.551,821.719C814.82,829.092 826.154,825.346 826.154,816.291L826.154,747.002C826.154,743.019 822.946,739.748 818.989,739.748C815.055,739.748 811.823,743.019 811.823,747.002L811.823,795.36C811.823,797.778 810.629,798.157 809.317,796.213L772.294,743.754C767.049,736.382 755.691,740.127 755.691,749.183L755.691,818.59C755.691,822.573 758.923,825.844 762.857,825.844C766.815,825.844 770.023,822.573 770.023,818.59Z" fill="#2559c1" fill-rule="nonzero"/>
  </g>
</svg>